<?xml version="1.0" encoding="UTF-8" standalone="no"?>
<!-- Created with Inkscape (http://www.inkscape.org/) -->

<svg
   xmlns:dc="http://purl.org/dc/elements/1.1/"
   xmlns:cc="http://creativecommons.org/ns#"
   xmlns:rdf="http://www.w3.org/1999/02/22-rdf-syntax-ns#"
   xmlns:svg="http://www.w3.org/2000/svg"
   xmlns="http://www.w3.org/2000/svg"
   xmlns:sodipodi="http://sodipodi.sourceforge.net/DTD/sodipodi-0.dtd"
   xmlns:inkscape="http://www.inkscape.org/namespaces/inkscape"
   version="1.1"
   id="svg2"
   xml:space="preserve"
   width="806"
   height="1074"
   viewBox="0 0 806 1074"
   sodipodi:docname="portucalio-logo-lettering.svg"
   inkscape:version="0.92.4 5da689c313, 2019-01-14"
   inkscape:export-filename="/home/pedrosilva/Documents/Projects/portucalio/Portucalio-branding/Logo/portucalio-logo-with-lettering-w1080.png"
   inkscape:export-xdpi="128.64"
   inkscape:export-ydpi="128.64"><title
     id="title4129">Portucalio logo card</title><metadata
     id="metadata8"><rdf:RDF><cc:Work
         rdf:about=""><dc:format>image/svg+xml</dc:format><dc:type
           rdf:resource="http://purl.org/dc/dcmitype/StillImage" /><dc:title>Portucalio logo card</dc:title><dc:creator><cc:Agent><dc:title>Pedro Pinto da Silva</dc:title></cc:Agent></dc:creator><dc:rights><cc:Agent><dc:title>Attribution-ShareAlike 4.0 International (CC BY-SA 4.0) </dc:title></cc:Agent></dc:rights><dc:language>Portuguese</dc:language><dc:subject><rdf:Bag><rdf:li>Portucalio</rdf:li><rdf:li>Logo</rdf:li><rdf:li>Boat</rdf:li><rdf:li>Portugal</rdf:li><rdf:li>Calendar</rdf:li></rdf:Bag></dc:subject><dc:description>Portucalio is a handcrafted calendar from Portugal with original designs by Pedro Silva and maintained (communications and administration) by Veronika Horská. For travelers, tourists, adventurers from any nation, Portucalio is a perfect souvenir to receive or a lovely gift to give.</dc:description><cc:license
           rdf:resource="http://creativecommons.org/licenses/by-sa/4.0/" /></cc:Work><cc:License
         rdf:about="http://creativecommons.org/licenses/by-sa/4.0/"><cc:permits
           rdf:resource="http://creativecommons.org/ns#Reproduction" /><cc:permits
           rdf:resource="http://creativecommons.org/ns#Distribution" /><cc:requires
           rdf:resource="http://creativecommons.org/ns#Notice" /><cc:requires
           rdf:resource="http://creativecommons.org/ns#Attribution" /><cc:permits
           rdf:resource="http://creativecommons.org/ns#DerivativeWorks" /><cc:requires
           rdf:resource="http://creativecommons.org/ns#ShareAlike" /></cc:License></rdf:RDF></metadata><defs
     id="defs6"><clipPath
   clipPathUnits="userSpaceOnUse"
   id="clipPath32"><path
     d="M 0,0 H 1113 V -425.876 H 0 Z"
     id="path30"
     inkscape:connector-curvature="0"
     style="clip-rule:evenodd" /></clipPath><clipPath
   clipPathUnits="userSpaceOnUse"
   id="clipPath42"><path
     d="M 0,-836.33079 H 2186.9369 V 836.33079 H 0 Z"
     id="path40"
     inkscape:connector-curvature="0" /></clipPath><clipPath
   clipPathUnits="userSpaceOnUse"
   id="clipPath46"><path
     d="M 0,0 H 2186.94 V -836.331 H 0 Z"
     id="path44"
     inkscape:connector-curvature="0"
     style="clip-rule:evenodd" /></clipPath><clipPath
   clipPathUnits="userSpaceOnUse"
   id="clipPath50"><path
     d="M 0,-836.33079 H 2186.9369 V 836.33079 H 0 Z"
     id="path48"
     inkscape:connector-curvature="0" /></clipPath><clipPath
   clipPathUnits="userSpaceOnUse"
   id="clipPath1122"><rect
     style="opacity:1;fill:none;fill-opacity:1;stroke:none;stroke-width:1.49580419;stroke-linecap:butt;stroke-linejoin:round;stroke-miterlimit:4;stroke-dasharray:none;stroke-dashoffset:0;stroke-opacity:1"
     id="rect1124"
     width="604.5"
     height="801"
     x="-3.2610376"
     y="-844.13782"
     transform="scale(1,-1)" /></clipPath><clipPath
   clipPathUnits="userSpaceOnUse"
   id="clipPath1126"><rect
     style="opacity:1;fill:none;fill-opacity:1;stroke:none;stroke-width:1.49580419;stroke-linecap:butt;stroke-linejoin:round;stroke-miterlimit:4;stroke-dasharray:none;stroke-dashoffset:0;stroke-opacity:1"
     id="rect1128"
     width="604.5"
     height="801"
     x="-3.2610376"
     y="-844.13782"
     transform="scale(1,-1)" /></clipPath><clipPath
   clipPathUnits="userSpaceOnUse"
   id="clipPath1130"><rect
     style="opacity:1;fill:none;fill-opacity:1;stroke:none;stroke-width:1.49580419;stroke-linecap:butt;stroke-linejoin:round;stroke-miterlimit:4;stroke-dasharray:none;stroke-dashoffset:0;stroke-opacity:1"
     id="rect1132"
     width="604.5"
     height="801"
     x="-4.61201"
     y="-831.71973"
     transform="scale(1,-1)" /></clipPath><clipPath
   clipPathUnits="userSpaceOnUse"
   id="clipPath1481"><g
     clip-path="url(#clipPath1130)"
     transform="translate(1.3509724,12.41805)"
     id="g1489"
     style="stroke-width:1"><g
       transform="translate(0,841.88976)"
       id="g1487"
       style="stroke-width:1"><g
         id="g1485"
         style="stroke-width:1"><path
           inkscape:connector-curvature="0"
           id="path1483"
           style="fill:#fabe1d;fill-opacity:1;fill-rule:evenodd;stroke:none;stroke-width:1"
           d="M 0,0 H 595.276 V -605.67 H 0 Z" /></g></g></g></clipPath>

</defs><sodipodi:namedview
     pagecolor="#ffffff"
     bordercolor="#666666"
     borderopacity="1"
     objecttolerance="10"
     gridtolerance="10"
     guidetolerance="10"
     inkscape:pageopacity="0"
     inkscape:pageshadow="2"
     inkscape:window-width="1920"
     inkscape:window-height="1011"
     id="namedview4"
     showgrid="false"
     inkscape:zoom="0.59465222"
     inkscape:cx="221.99761"
     inkscape:cy="526.80372"
     inkscape:window-x="0"
     inkscape:window-y="32"
     inkscape:window-maximized="1"
     inkscape:current-layer="g10"
     fit-margin-top="6"
     fit-margin-left="6"
     fit-margin-right="6"
     fit-margin-bottom="6"
     inkscape:snap-page="true"
     inkscape:snap-nodes="true"
     inkscape:snap-bbox="false"
     inkscape:object-nodes="false" /><g
     id="g10"
     inkscape:groupmode="layer"
     inkscape:label="Portucalio card"
     transform="matrix(1.3333333,0,0,-1.3333333,4.3480501,1131.5171)"><rect
       clip-path="none"
       inkscape:export-ydpi="96"
       inkscape:export-xdpi="96"
       ry="9"
       rx="8.9934454"
       transform="scale(1,-1)"
       y="-843.38788"
       x="1.9889419"
       height="795.00006"
       width="594.00006"
       id="rect1046"
       style="opacity:1;fill:#ffffff;fill-opacity:1;stroke:#fabe1d;stroke-width:1.49995887;stroke-linecap:butt;stroke-linejoin:round;stroke-miterlimit:4;stroke-dasharray:none;stroke-dashoffset:0;stroke-opacity:1"
       inkscape:label="Card" /><path
       style="fill:#fabe1d;fill-opacity:1;fill-rule:evenodd;stroke:none;stroke-width:1.33333325"
       d="m 18.992188,5.9980469 c -6.545048,0 -11.9381237,4.8384641 -12.8437505,11.1347651 V 800 H 799.85156 V 17.140625 C 798.94967,10.840505 793.55753,5.9980469 787.00977,5.9980469 Z"
       transform="matrix(0.75000002,0,0,-0.75000002,-3.2610377,848.63785)"
       id="path20"
       inkscape:connector-curvature="0"
       inkscape:label="Yellow solid" /><g
       id="g4114"
       inkscape:label="Boat front"><path
         inkscape:connector-curvature="0"
         id="path54"
         style="fill:#04b8e7;fill-opacity:1;fill-rule:nonzero;stroke:none;stroke-width:0.50907499"
         d="m 272.40976,668.84598 c 0,0 20.14121,-41.49573 20.05006,-63.78388 -0.0249,-6.12693 -3.5993,-20.06123 -3.5993,-20.06123 0,0 3.07001,-8.82427 4.11317,-14.9176 1.27303,-7.43614 0,-22.63279 0,-22.63279 0,0 15.04142,26.12451 14.07145,44.59087 -2.31466,44.06688 -34.63538,76.80463 -34.63538,76.80463 z" /><path
         inkscape:connector-curvature="0"
         id="path70"
         transform="matrix(0.75000002,0,0,-0.75000002,-3.2610377,848.63785)"
         d="m 274.25781,512.88672 c -0.8121,0.12115 -3.72822,1.54829 -8.97656,4.47461 -10.18539,5.67949 -79.33121,38.31387 -99.15234,46.79883 C 129.02948,580.03709 65.958731,596.24221 6,605.45312 v 29.22852 c 11.140519,-2.05122 22.034453,-4.26388 32.630859,-6.63672 C 104.97497,613.1886 159.25402,587.92887 251.5332,528.9707 c 16.11825,-10.29867 24.51123,-16.35052 22.72461,-16.08398 z"
         style="fill:#04b8e7;fill-opacity:1;fill-rule:nonzero;stroke:none;stroke-width:0.67876661" /><path
         inkscape:connector-curvature="0"
         id="path78"
         transform="matrix(0.75000002,0,0,-0.75000002,-3.2610377,848.63785)"
         d="m 325.29297,599.7832 c -0.42071,0 -33.63614,17.98599 -73.81445,39.96875 l -73.04883,39.96875 -39.22071,12.93946 C 80.750606,711.94732 47.460487,721.02926 6,727.52734 v 60.5 c 33.431908,-7.93653 64.62751,-18.96262 98.78516,-34.1875 54.58443,-24.32849 112.75693,-60.57545 164.51172,-102.5039 20.31649,-16.46247 58.43217,-51.55274 55.99609,-51.55274 z"
         style="fill:#191c21;fill-opacity:1;fill-rule:nonzero;stroke:none;stroke-width:0.67876661" /><path
         inkscape:connector-curvature="0"
         id="path86"
         transform="matrix(0.75000002,0,0,-0.75000002,-3.2610377,848.63785)"
         d="m 419.45898,400.66406 c -0.45262,-0.18724 -4.12214,6.03991 -8.5371,14.52735 C 393.2654,449.12698 380.46156,463.82512 332.5,505.16406 266.27124,562.25781 166.73815,619.61298 90.955078,644.35156 65.136536,652.78037 36.624512,659.79382 6,665.31445 v 59.81446 c 42.689771,-7.01522 83.059261,-18.17814 142.79492,-38.33399 l 30.16406,-10.17773 78.6875,-43.09766 c 77.66272,-42.53956 78.78232,-43.21493 86.18555,-51.8418 19.67184,-22.91353 37.53893,-49.4917 50.58789,-75.24804 9.66289,-19.06656 14.82496,-33.71218 18.22461,-51.71094 2.44965,-12.95347 6.9224,-48.10126 6.86133,-53.92969 -8.5e-4,-0.0707 -0.0167,-0.11251 -0.0469,-0.125 z"
         style="fill:#ffffff;fill-opacity:1;fill-rule:nonzero;stroke:none;stroke-width:0.67876661" /><path
         inkscape:connector-curvature="0"
         id="path94"
         transform="matrix(0.75000002,0,0,-0.75000002,-3.2610377,848.63785)"
         d="m 403.0625,291.42383 c -0.42188,0.0216 -0.35009,1.0642 0.38086,3.34765 11.99039,37.5 13.05515,55.79157 4.53906,78.38477 -3.01286,8.00223 -6.75764,17.98669 -8.31836,22.18945 -7.7086,20.73476 -35.3208,55.04166 -61.12695,75.94141 -7.79001,6.30957 -15.91132,13.09802 -18.04883,15.08398 -6.9418,6.44198 -80.55316,54.63938 -114.40039,74.9043 C 140.59199,600.48398 88.897893,621.54131 27.710938,633.93164 21.179397,635.2545 13.765048,636.62598 6,638 v 24.0293 c 92.545715,-16.81947 162.63244,-46.80764 250.06445,-103.87305 47.10656,-30.74669 100.72611,-75.12392 125.48047,-103.85547 24.34041,-28.24677 37.40352,-56.86375 40.72852,-89.19922 2.76858,-26.9262 1.25664,-36.53278 -9.06446,-57.45703 -4.76507,-9.6561 -9.06835,-16.27579 -10.14648,-16.2207 z"
         style="fill:#e94e47;fill-opacity:1;fill-rule:nonzero;stroke:none;stroke-width:0.67876661" /><path
         inkscape:connector-curvature="0"
         id="path102"
         transform="matrix(0.75000002,0,0,-0.75000002,-3.2610377,848.63785)"
         d="m 414.61719,416.14453 c -0.35496,0.0349 -2.34559,3.21533 -4.62305,7.41406 -12.1234,22.35299 -24.61044,37.91858 -47.19336,58.82227 -43.33504,40.11288 -81.71625,68.81373 -134.07226,100.25976 -37.48575,22.51499 -82.63098,44.67487 -118.92774,58.37696 -7.35159,2.77558 -13.058586,5.05316 -12.681639,5.0625 2.445036,0.055 20.076239,-3.9024 47.640629,-10.69336 17.53074,-4.31887 65.31312,-15.89148 106.18359,-25.71875 40.8698,-9.82795 74.95368,-18.12204 75.74219,-18.43164 4.47112,-1.75104 11.8008,-8.09219 18.07422,-15.63477 18.47076,-22.21217 34.38076,-46.31655 46.72265,-70.79101 9.61809,-19.07131 14.60551,-32.98822 17.8457,-49.78711 1.69507,-8.78812 5.6833,-37.80739 5.3379,-38.84375 -0.009,-0.0263 -0.0252,-0.0375 -0.0488,-0.0352 z"
         style="fill:#fabe1d;fill-opacity:1;fill-rule:nonzero;stroke:none;stroke-width:0.67876661" /></g><g
       id="g2601"
       inkscape:label="Boat rear"><path
         inkscape:connector-curvature="0"
         id="path274"
         transform="matrix(0.75000002,0,0,-0.75000002,-3.2610377,848.63785)"
         d="m 507.69531,5.9980469 c 53.3334,37.0664701 122.89496,65.3668181 207.99219,84.5976561 22.73327,5.137243 51.29486,10.202747 84.16406,15.033207 V 78.353516 C 736.67865,69.979716 686.3186,60.325561 645.08398,48.966797 610.36751,39.40365 585.31553,29.666083 546.37695,10.601562 543.2103,9.0510969 540.15967,7.5179936 537.2168,5.9980469 Z"
         style="display:inline;fill:#04b8e7;fill-opacity:1;fill-rule:nonzero;stroke:none;stroke-width:0.67876661" /><path
         inkscape:connector-curvature="0"
         id="path282"
         transform="matrix(0.75000002,0,0,-0.75000002,-3.2610377,848.63785)"
         d="m 428.48438,62.664062 c -4.3356,-0.04016 -7.88282,0.472019 -7.88282,1.138672 0,1.979214 10.41896,10.797301 16.31055,13.804688 6.87713,3.510493 11.0013,8.915203 18.51562,24.259768 14.93696,30.50173 34.39847,53.48556 59.125,69.82812 48.88918,32.31239 114.75006,61.44342 184.51758,81.61328 30.91135,8.9362 64.46976,16.51384 100.78125,22.76368 v -79.09766 c -9.98289,-1.19967 -20.71196,-2.48851 -28.29297,-3.40039 -55.50051,-6.67621 -117.75405,-18.57898 -157.01562,-30.02149 -44.82927,-13.06522 -101.4793,-33.88275 -124.71094,-45.83007 -9.82072,-5.05072 -14.71481,-8.75307 -23.99023,-18.148441 -6.40912,-6.492013 -15.66339,-17.43634 -20.56446,-24.320313 l -8.91015,-12.517578 z"
         style="fill:#191c21;fill-opacity:1;fill-rule:nonzero;stroke:none;stroke-width:0.67876661" /><path
         inkscape:connector-curvature="0"
         id="path290"
         transform="matrix(0.75000002,0,0,-0.75000002,-3.2610377,848.63785)"
         d="m 428.76172,5.9980469 c 0.40147,15.4457581 2.01013,28.3253091 5.0664,41.2578121 2.42536,10.26316 3.9938,13.506957 11.99024,24.785157 5.06005,7.137226 14.75298,18.596484 21.53906,25.464843 10.90257,11.035811 14.01277,13.298521 26.73242,19.449221 43.41174,20.99209 118.69736,45.59634 174.79297,57.12304 45.87785,9.42722 64.17399,12.37706 130.96875,20.38282 V 133.70898 C 749.89299,126.9772 708.98994,119.96733 675.05273,112.37695 618.35182,99.694663 559.99284,75.827694 518.08008,48.177734 500.77655,36.762516 484.16442,22.28807 469.38086,5.9980469 Z"
         style="fill:#ffffff;fill-opacity:1;fill-rule:nonzero;stroke:none;stroke-width:0.67876661" /><path
         inkscape:connector-curvature="0"
         id="path1465"
         transform="matrix(0.75000002,0,0,-0.75000002,-3.2610377,848.63785)"
         d="m 473.81445,5.9980469 c 7.74811,8.7462411 15.35922,16.5040441 21.54688,21.7246091 37.59784,31.721013 105.05835,63.211169 169.12109,78.943364 33.04411,8.11478 80.14663,16.27601 135.36914,23.85351 V 109.18555 C 711.7895,96.118897 651.97354,80.230213 598.24805,58.285156 561.84743,43.416259 530.49053,26.367712 502.08203,5.9980469 Z"
         style="fill:#e94e47;fill-opacity:1;fill-rule:evenodd;stroke:none;stroke-width:1.33333325" /><path
         inkscape:connector-curvature="0"
         id="path314"
         transform="matrix(0.75000002,0,0,-0.75000002,-3.2610377,848.63785)"
         d="m 432.37891,5.9980469 c 0.11391,8.8260151 0.34009,16.4683941 0.70312,19.1308591 1.31164,9.61964 4.08752,23.309904 5.64453,27.837891 2.57779,7.497066 11.89122,21.809742 14.62696,22.478515 1.79394,0.439295 77.79496,15.422727 104.62304,20.626954 43.06157,8.352564 97.67832,17.923504 116.8711,20.480464 7.87892,1.04967 6.49865,0.35197 -3.76954,-1.90625 C 614.81422,102.26972 546.23671,72.93721 507.73242,44.777344 492.17515,33.399714 478.17616,20.627265 465.26953,5.9980469 Z"
         style="fill:#fabe1d;fill-opacity:1;fill-rule:nonzero;stroke:none;stroke-width:0.67876661" /></g><g
       id="text83667"
       style="font-style:normal;font-weight:normal;font-size:100px;line-height:1.25;font-family:sans-serif;letter-spacing:0px;word-spacing:0px;fill:#3c484f;fill-opacity:0.97907948;stroke:none;stroke-width:0.75"
       clip-path="none"
       transform="scale(1,-1)"
       aria-label="Portucalio"
       inkscape:label="Portucalio"><path
         inkscape:connector-curvature="0"
         id="path1085"
         style="font-style:normal;font-variant:normal;font-weight:normal;font-stretch:normal;font-size:100px;font-family:'Maryleen FY';-inkscape-font-specification:'Maryleen FY, Normal';font-variant-ligatures:normal;font-variant-caps:normal;font-variant-numeric:normal;font-feature-settings:normal;text-align:start;writing-mode:lr-tb;text-anchor:start;fill:#3c484f;fill-opacity:1;stroke-width:0.75"
         d="m 119.82647,-202.04347 c -7.4,0 -16.3,1.4 -19.8,2.7 l -22.199998,60.3 h 14.7 l 21.999998,-59.4 c 1.1,-0.3 2.4,-0.5 3.7,-0.5 5.3,0 6.7,3.2 6.7,7.5 0,11.4 -8.2,26.8 -18.6,28.4 l -1.2,3.1 c 16.2,0 34,-12.1 34,-27.9 0,-9.6 -6.8,-14.2 -19.3,-14.2 z" /><path
         inkscape:connector-curvature="0"
         id="path1087"
         style="font-style:normal;font-variant:normal;font-weight:normal;font-stretch:normal;font-size:100px;font-family:'Maryleen FY';-inkscape-font-specification:'Maryleen FY, Normal';font-variant-ligatures:normal;font-variant-caps:normal;font-variant-numeric:normal;font-feature-settings:normal;text-align:start;writing-mode:lr-tb;text-anchor:start;fill:#3c484f;fill-opacity:1;stroke-width:0.75"
         d="m 169.28116,-184.94347 c 2,0 3.2,1.2 3.2,4.7 0,11.7 -12,40.4 -19.7,40.4 -2,0 -3.2,-1.2 -3.2,-4.7 0,-11.7 12,-40.4 19.7,-40.4 z m -18,48.2 c 19.4,0 34.3,-21.5 34.3,-37.2 0,-8 -4.4,-14.1 -14.8,-14.1 -19.4,0 -34.3,21.1 -34.3,36.8 0,8 4.4,14.5 14.8,14.5 z" /><path
         inkscape:connector-curvature="0"
         id="path1089"
         style="font-style:normal;font-variant:normal;font-weight:normal;font-stretch:normal;font-size:100px;font-family:'Maryleen FY';-inkscape-font-specification:'Maryleen FY, Normal';font-variant-ligatures:normal;font-variant-caps:normal;font-variant-numeric:normal;font-feature-settings:normal;text-align:start;writing-mode:lr-tb;text-anchor:start;fill:#3c484f;fill-opacity:1;stroke-width:0.75"
         d="m 220.51553,-188.04347 c -9.7,0 -20,4.2 -24.9,17.5 l -11.5,31.5 h 14.3 l 12.9,-36.3 c 2.6,-7.3 6.1,-9.6 9.9,-9.6 2.5,0 4.8,1 5.8,2.3 l -7.6,5.8 c 0.1,4.1 3.3,6.2 6.5,6.2 3.5,0 7.1,-2.5 7.1,-7.4 0,-5.9 -5.6,-10 -12.5,-10 z" /><path
         inkscape:connector-curvature="0"
         id="path1091"
         style="font-style:normal;font-variant:normal;font-weight:normal;font-stretch:normal;font-size:100px;font-family:'Maryleen FY';-inkscape-font-specification:'Maryleen FY, Normal';font-variant-ligatures:normal;font-variant-caps:normal;font-variant-numeric:normal;font-feature-settings:normal;text-align:start;writing-mode:lr-tb;text-anchor:start;fill:#3c484f;fill-opacity:1;stroke-width:0.75"
         d="m 234.90772,-182.74347 h 7.4 l -7.7,20.9 c -2.6,7.1 -4.4,11.5 -4.4,15.6 0,6.7 5.2,9.5 10.2,9.5 9.9,0 18.9,-6.9 26.3,-20.5 1.3,-2.3 2.5,-4.6 3.6,-6.9 h -3 c -1.1,2.3 -2.3,4.7 -3.5,6.9 -6,10.9 -12.8,15.2 -16.6,15.2 -2.3,0 -3.6,-0.9 -3.6,-3.4 0,-1.9 1.3,-6.1 3.2,-11.3 l 9.5,-26 h 13.3 l 1.2,-3 h -13.4 l 3.6,-9.7 -15.1,2.9 -2.5,6.8 h -7.3 z" /><path
         inkscape:connector-curvature="0"
         id="path1093"
         style="font-style:normal;font-variant:normal;font-weight:normal;font-stretch:normal;font-size:100px;font-family:'Maryleen FY';-inkscape-font-specification:'Maryleen FY, Normal';font-variant-ligatures:normal;font-variant-caps:normal;font-variant-numeric:normal;font-feature-settings:normal;text-align:start;writing-mode:lr-tb;text-anchor:start;fill:#3c484f;fill-opacity:1;stroke-width:0.75"
         d="m 300.3671,-143.64347 c 0,-2.6 1.5,-7.9 3.4,-13.1 l 10.6,-29 h -13.9 l -11.1,29.5 c -3.3,8.7 -9.2,15.1 -12.7,15.1 -1.4,0 -2.5,-0.9 -2.5,-3.3 0,-2 1.5,-7.1 3.4,-12.3 l 10.6,-29 h -13.9 l -8.9,23.9 c -2.9,7.9 -4.4,11.5 -4.4,15.6 0,6.6 4.8,9.5 10.6,9.5 6.7,0 11.3,-3 16.3,-10.5 -0.2,0.9 -0.2,1.5 -0.2,2.1 0,6.1 4.8,8.4 9.5,8.4 9.9,0 17,-6.9 24.4,-20.5 1.3,-2.3 2.5,-4.6 3.6,-6.9 h -3 c -1.1,2.3 -2.3,4.7 -3.5,6.9 -6,10.9 -11.7,16.1 -15.5,16.1 -1.8,0 -2.8,-0.9 -2.8,-2.5 z" /><path
         inkscape:connector-curvature="0"
         id="path1095"
         style="font-style:normal;font-variant:normal;font-weight:normal;font-stretch:normal;font-size:100px;font-family:'Maryleen FY';-inkscape-font-specification:'Maryleen FY, Normal';font-variant-ligatures:normal;font-variant-caps:normal;font-variant-numeric:normal;font-feature-settings:normal;text-align:start;writing-mode:lr-tb;text-anchor:start;fill:#3c484f;fill-opacity:1;stroke-width:0.75"
         d="m 348.24991,-184.84347 c 1.9,0 3.5,0.5 4.7,2.2 l -8.7,6.2 c 0.5,3.6 3.2,6.2 6.8,6.2 4.6,0 7.8,-3.8 7.8,-7.7 0,-5.5 -4.1,-10.1 -12.2,-10.1 -14.9,0 -29.7,17.4 -29.7,35.3 0,12 7.4,16 16.5,16 13.9,0 22.6,-9.1 28.8,-20.5 1.3,-2.3 2.5,-4.6 3.6,-6.9 h -3 c -1.1,2.3 -2.3,4.7 -3.5,6.9 -5,9.1 -12,15.2 -19.7,15.2 -5.9,0 -8.8,-4.7 -8.8,-10.9 0,-12.7 8.9,-31.9 17.4,-31.9 z" /><path
         inkscape:connector-curvature="0"
         id="path1097"
         style="font-style:normal;font-variant:normal;font-weight:normal;font-stretch:normal;font-size:100px;font-family:'Maryleen FY';-inkscape-font-specification:'Maryleen FY, Normal';font-variant-ligatures:normal;font-variant-caps:normal;font-variant-numeric:normal;font-feature-settings:normal;text-align:start;writing-mode:lr-tb;text-anchor:start;fill:#3c484f;fill-opacity:1;stroke-width:0.75"
         d="m 397.07491,-143.44347 c 0,-2.6 1.7,-7.8 3.5,-13 l 5.3,-14.9 c 0.7,-2.1 1.1,-4 1.1,-5.8 0,-6.9 -5.6,-10.9 -14.9,-10.9 -19.4,0 -34.5,21.4 -34.5,37.1 0,8 4.3,14.2 11.7,14.2 5.4,0 10.3,-2.3 15.7,-10.8 -0.1,0.4 -0.1,0.9 -0.1,1.3 0,6.8 4.3,9.5 9.6,9.5 9.3,0 16.4,-6.9 23.8,-20.5 1.3,-2.3 2.5,-4.6 3.6,-6.9 h -3 c -1.1,2.3 -2.3,4.7 -3.5,6.9 -6,10.9 -12.4,16.1 -15.9,16.1 -2.1,0 -2.4,-0.9 -2.4,-2.3 z m -23,2.2 c -3,0 -3.4,-3.1 -3.4,-5.2 0,-9.7 12.2,-38.5 20.4,-38.5 2.2,0 3.6,1 3.6,3.7 0,1.6 -0.5,3.8 -1.6,6.8 l -4.8,12.9 c -2.7,7.2 -8.7,20.3 -14.2,20.3 z" /><path
         inkscape:connector-curvature="0"
         id="path1099"
         style="font-style:normal;font-variant:normal;font-weight:normal;font-stretch:normal;font-size:100px;font-family:'Maryleen FY';-inkscape-font-specification:'Maryleen FY, Normal';font-variant-ligatures:normal;font-variant-caps:normal;font-variant-numeric:normal;font-feature-settings:normal;text-align:start;writing-mode:lr-tb;text-anchor:start;fill:#3c484f;fill-opacity:1;stroke-width:0.75"
         d="m 425.7296,-143.54347 c 0,-2.7 1.5,-8 3.4,-13.2 l 21,-56.9 -15,2.9 -18.2,48.9 c -3.1,8.2 -4.4,12 -4.4,15.6 0,6.6 4.8,9.5 10.6,9.5 9.2,0 16.4,-6.9 23.8,-20.5 1.3,-2.3 2.5,-4.6 3.6,-6.9 h -3 c -1.1,2.3 -2.3,4.7 -3.5,6.9 -6,10.9 -12.4,16.1 -16,16.1 -1.5,0 -2.3,-0.9 -2.3,-2.4 z" /><path
         inkscape:connector-curvature="0"
         id="path1101"
         style="font-style:normal;font-variant:normal;font-weight:normal;font-stretch:normal;font-size:100px;font-family:'Maryleen FY';-inkscape-font-specification:'Maryleen FY, Normal';font-variant-ligatures:normal;font-variant-caps:normal;font-variant-numeric:normal;font-feature-settings:normal;text-align:start;writing-mode:lr-tb;text-anchor:start;fill:#3c484f;fill-opacity:1;stroke-width:0.75"
         d="m 458.84053,-201.24347 c 0,3.9 2.9,6.9 7,6.9 4.4,0 8.5,-3.7 8.5,-8.2 0,-4.1 -3.1,-7.3 -7.2,-7.3 -4.9,0 -8.3,3.9 -8.3,8.6 z m -4.4,57.5 c 0,-2.7 1.5,-7.8 3.4,-13 l 10.6,-29 h -13.9 l -8.9,23.9 c -3.3,8.8 -4.4,12.3 -4.4,15.6 0,6.6 4.8,9.5 10.6,9.5 9.5,0 16.4,-6.9 23.8,-20.5 1.3,-2.3 2.5,-4.6 3.6,-6.9 h -3 c -1.1,2.3 -2.3,4.7 -3.5,6.9 -6,10.9 -12,16.1 -15.5,16.1 -1.9,0 -2.8,-0.9 -2.8,-2.6 z" /><path
         inkscape:connector-curvature="0"
         id="path1103"
         style="font-style:normal;font-variant:normal;font-weight:normal;font-stretch:normal;font-size:100px;font-family:'Maryleen FY';-inkscape-font-specification:'Maryleen FY, Normal';font-variant-ligatures:normal;font-variant-caps:normal;font-variant-numeric:normal;font-feature-settings:normal;text-align:start;writing-mode:lr-tb;text-anchor:start;fill:#3c484f;fill-opacity:1;stroke-width:0.75"
         d="m 503.85147,-184.94347 c 2,0 3.2,1.2 3.2,4.7 0,11.7 -12,40.4 -19.7,40.4 -2,0 -3.2,-1.2 -3.2,-4.7 0,-11.7 12,-40.4 19.7,-40.4 z m -18,48.2 c 19.4,0 34.3,-21.5 34.3,-37.2 0,-8 -4.4,-14.1 -14.8,-14.1 -19.4,0 -34.3,21.1 -34.3,36.8 0,8 4.4,14.5 14.8,14.5 z" /></g><g
       id="text83699"
       style="font-style:normal;font-weight:normal;font-size:30px;line-height:1.25;font-family:sans-serif;letter-spacing:0px;word-spacing:0px;display:inline;fill:#3c484f;fill-opacity:0.94117647;stroke:none;stroke-width:0.75"
       clip-path="none"
       transform="scale(1,-1)"
       aria-label="Leva Portugal contigo"
       inkscape:label="moto"><path
         inkscape:connector-curvature="0"
         id="path1046"
         style="font-style:italic;font-variant:normal;font-weight:normal;font-stretch:normal;font-size:30px;font-family:'Fira Sans';-inkscape-font-specification:'Fira Sans, Italic';font-variant-ligatures:normal;font-variant-caps:normal;font-variant-numeric:normal;font-feature-settings:normal;text-align:start;writing-mode:lr-tb;text-anchor:start;fill:#3c484f;fill-opacity:1;stroke-width:0.75"
         d="m 159.06757,-116.551 h -2.82 l -2.91,20.669996 h 10.92 l 0.66,-2.49 h -8.4 z" /><path
         inkscape:connector-curvature="0"
         id="path1048"
         style="font-style:italic;font-variant:normal;font-weight:normal;font-stretch:normal;font-size:30px;font-family:'Fira Sans';-inkscape-font-specification:'Fira Sans, Italic';font-variant-ligatures:normal;font-variant-caps:normal;font-variant-numeric:normal;font-feature-settings:normal;text-align:start;writing-mode:lr-tb;text-anchor:start;fill:#3c484f;fill-opacity:1;stroke-width:0.75"
         d="m 180.18148,-108.031 c 0,-2.1 -1.65,-4.02 -5.01,-4.02 -6,0 -8.13,5.79 -8.13,10.11 0,3.989996 2.16,6.419996 6.03,6.419996 2.1,0 3.96,-0.69 5.67,-1.92 l -1.17,-1.86 c -1.44,1.02 -2.76,1.47 -4.23,1.47 -2.01,0 -3.36,-1.05 -3.42,-3.929996 5.52,-0.6 10.26,-1.83 10.26,-6.27 z m -10.11,4.17 c 0.39,-2.88 1.77,-6 5.07,-6 1.71,0 2.16,1.17 2.16,1.92 0,2.7 -2.7,3.57 -7.23,4.08 z" /><path
         inkscape:connector-curvature="0"
         id="path1050"
         style="font-style:italic;font-variant:normal;font-weight:normal;font-stretch:normal;font-size:30px;font-family:'Fira Sans';-inkscape-font-specification:'Fira Sans, Italic';font-variant-ligatures:normal;font-variant-caps:normal;font-variant-numeric:normal;font-feature-settings:normal;text-align:start;writing-mode:lr-tb;text-anchor:start;fill:#3c484f;fill-opacity:1;stroke-width:0.75"
         d="m 196.25304,-111.691 h -3 l -5.88,13.319996 -2.16,-13.319996 h -2.97 l 3.18,15.809996 h 3.27 z" /><path
         inkscape:connector-curvature="0"
         id="path1052"
         style="font-style:italic;font-variant:normal;font-weight:normal;font-stretch:normal;font-size:30px;font-family:'Fira Sans';-inkscape-font-specification:'Fira Sans, Italic';font-variant-ligatures:normal;font-variant-caps:normal;font-variant-numeric:normal;font-feature-settings:normal;text-align:start;writing-mode:lr-tb;text-anchor:start;fill:#3c484f;fill-opacity:1;stroke-width:0.75"
         d="m 205.23569,-112.051 c -6.15,0 -8.43,6.15 -8.43,10.47 0,3.629996 1.8,6.059996 5.04,6.059996 1.86,0 3.48,-1.05 4.71,-2.64 0.21,1.71 1.2,2.43 2.79,2.64 l 0.78,-1.89 c -0.99,-0.39 -1.11,-0.96 -0.96,-2.07 l 1.62,-11.219996 c -1.8,-0.87 -3.51,-1.35 -5.55,-1.35 z m 0.06,2.19 c 1.05,0 1.74,0.15 2.58,0.51 l -1.23,8.73 c -1.23,1.649996 -2.46,2.909996 -4.23,2.909996 -1.68,0 -2.67,-1.2 -2.67,-3.839996 0,-3.54 1.53,-8.31 5.55,-8.31 z" /><path
         inkscape:connector-curvature="0"
         id="path1054"
         style="font-style:italic;font-variant:normal;font-weight:normal;font-stretch:normal;font-size:30px;font-family:'Fira Sans';-inkscape-font-specification:'Fira Sans, Italic';font-variant-ligatures:normal;font-variant-caps:normal;font-variant-numeric:normal;font-feature-settings:normal;text-align:start;writing-mode:lr-tb;text-anchor:start;fill:#3c484f;fill-opacity:1;stroke-width:0.75"
         d="m 230.22944,-116.551 h -5.31 l -2.91,20.669996 h 2.82 l 1.05,-7.589996 h 2.67 c 6.6,0 8.88,-3.78 8.88,-7.62 0,-3.72 -2.7,-5.46 -7.2,-5.46 z m -1.62,10.83 h -2.4 l 1.2,-8.61 h 2.61 c 2.7,0 4.41,0.81 4.41,3.24 0,2.67 -1.14,5.37 -5.82,5.37 z" /><path
         inkscape:connector-curvature="0"
         id="path1056"
         style="font-style:italic;font-variant:normal;font-weight:normal;font-stretch:normal;font-size:30px;font-family:'Fira Sans';-inkscape-font-specification:'Fira Sans, Italic';font-variant-ligatures:normal;font-variant-caps:normal;font-variant-numeric:normal;font-feature-settings:normal;text-align:start;writing-mode:lr-tb;text-anchor:start;fill:#3c484f;fill-opacity:1;stroke-width:0.75"
         d="m 244.1171,-95.521004 c 6.21,0 8.16,-6.179996 8.16,-9.989996 0,-4.02 -2.1,-6.54 -6.03,-6.54 -6.18,0 -8.19,6.09 -8.19,9.99 0,4.019996 2.13,6.539996 6.06,6.539996 z m 0.09,-2.22 c -2.13,0 -3.27,-1.26 -3.27,-4.019996 0,-3.03 1.11,-8.07 5.22,-8.07 2.1,0 3.24,1.26 3.24,4.02 0,3.03 -1.08,8.069996 -5.19,8.069996 z" /><path
         inkscape:connector-curvature="0"
         id="path1058"
         style="font-style:italic;font-variant:normal;font-weight:normal;font-stretch:normal;font-size:30px;font-family:'Fira Sans';-inkscape-font-specification:'Fira Sans, Italic';font-variant-ligatures:normal;font-variant-caps:normal;font-variant-numeric:normal;font-feature-settings:normal;text-align:start;writing-mode:lr-tb;text-anchor:start;fill:#3c484f;fill-opacity:1;stroke-width:0.75"
         d="m 264.52085,-112.051 c -1.74,0 -3.39,1.14 -4.59,3.6 l 0.18,-3.24 h -2.34 l -2.22,15.809996 h 2.73 l 1.2,-8.369996 c 1.11,-3.21 2.49,-5.07 4.53,-5.07 0.51,0 0.84,0.03 1.29,0.15 l 0.81,-2.67 c -0.48,-0.12 -1.02,-0.21 -1.59,-0.21 z" /><path
         inkscape:connector-curvature="0"
         id="path1060"
         style="font-style:italic;font-variant:normal;font-weight:normal;font-stretch:normal;font-size:30px;font-family:'Fira Sans';-inkscape-font-specification:'Fira Sans, Italic';font-variant-ligatures:normal;font-variant-caps:normal;font-variant-numeric:normal;font-feature-settings:normal;text-align:start;writing-mode:lr-tb;text-anchor:start;fill:#3c484f;fill-opacity:1;stroke-width:0.75"
         d="m 271.77663,-109.561 h 3.42 l 0.6,-2.13 h -3.72 l 0.54,-3.9 -2.16,0.24 -0.99,3.66 h -2.85 l -0.3,2.13 h 2.73 l -1.32,9.45 c -0.42,2.939996 1.02,4.589996 3.75,4.589996 1.2,0 2.37,-0.33 3.51,-1.05 l -0.9,-1.92 c -0.84,0.42 -1.5,0.66 -2.28,0.66 -1.17,0 -1.59,-0.63 -1.35,-2.219996 z" /><path
         inkscape:connector-curvature="0"
         id="path1062"
         style="font-style:italic;font-variant:normal;font-weight:normal;font-stretch:normal;font-size:30px;font-family:'Fira Sans';-inkscape-font-specification:'Fira Sans, Italic';font-variant-ligatures:normal;font-variant-caps:normal;font-variant-numeric:normal;font-feature-settings:normal;text-align:start;writing-mode:lr-tb;text-anchor:start;fill:#3c484f;fill-opacity:1;stroke-width:0.75"
         d="m 281.93069,-95.521004 c 2.19,0 3.75,-1.26 5.22,-3.27 l -0.21,2.91 h 2.34 l 2.22,-15.809996 h -2.73 l -1.44,10.29 c -1.23,1.829996 -2.82,3.719996 -4.8,3.719996 -1.38,0 -1.95,-0.75 -1.65,-2.909996 l 1.56,-11.1 h -2.73 l -1.59,11.22 c -0.45,3.089996 1.02,4.949996 3.81,4.949996 z" /><path
         inkscape:connector-curvature="0"
         id="path1064"
         style="font-style:italic;font-variant:normal;font-weight:normal;font-stretch:normal;font-size:30px;font-family:'Fira Sans';-inkscape-font-specification:'Fira Sans, Italic';font-variant-ligatures:normal;font-variant-caps:normal;font-variant-numeric:normal;font-feature-settings:normal;text-align:start;writing-mode:lr-tb;text-anchor:start;fill:#3c484f;fill-opacity:1;stroke-width:0.75"
         d="m 303.32585,-112.051 c -6.21,0 -8.58,5.52 -8.58,10.23 0,3.599996 1.89,5.939996 5.07,5.939996 1.74,0 3.33,-0.99 4.5,-2.4 l -0.27,2.01 c -0.54,3.87 -2.61,4.5 -4.71,4.5 -1.65,0 -3.3,-0.69 -4.26,-1.26 l -1.05,2.1 c 1.5,0.93 3.57,1.53 5.46,1.53 3.72,0 6.48,-1.74 7.23,-6.84 l 2.19,-14.459996 c -1.8,-0.87 -3.51,-1.35 -5.58,-1.35 z m 0,2.19 c 1.08,0 1.77,0.15 2.67,0.51 l -1.29,8.31 c -1.23,1.649996 -2.58,2.969996 -4.32,2.969996 -1.62,0 -2.7,-1.11 -2.7,-3.719996 0,-3.84 1.62,-8.07 5.64,-8.07 z" /><path
         inkscape:connector-curvature="0"
         id="path1066"
         style="font-style:italic;font-variant:normal;font-weight:normal;font-stretch:normal;font-size:30px;font-family:'Fira Sans';-inkscape-font-specification:'Fira Sans, Italic';font-variant-ligatures:normal;font-variant-caps:normal;font-variant-numeric:normal;font-feature-settings:normal;text-align:start;writing-mode:lr-tb;text-anchor:start;fill:#3c484f;fill-opacity:1;stroke-width:0.75"
         d="m 320.54819,-112.051 c -6.15,0 -8.43,6.15 -8.43,10.47 0,3.629996 1.8,6.059996 5.04,6.059996 1.86,0 3.48,-1.05 4.71,-2.64 0.21,1.71 1.2,2.43 2.79,2.64 l 0.78,-1.89 c -0.99,-0.39 -1.11,-0.96 -0.96,-2.07 l 1.62,-11.219996 c -1.8,-0.87 -3.51,-1.35 -5.55,-1.35 z m 0.06,2.19 c 1.05,0 1.74,0.15 2.58,0.51 l -1.23,8.73 c -1.23,1.649996 -2.46,2.909996 -4.23,2.909996 -1.68,0 -2.67,-1.2 -2.67,-3.839996 0,-3.54 1.53,-8.31 5.55,-8.31 z" /><path
         inkscape:connector-curvature="0"
         id="path1068"
         style="font-style:italic;font-variant:normal;font-weight:normal;font-stretch:normal;font-size:30px;font-family:'Fira Sans';-inkscape-font-specification:'Fira Sans, Italic';font-variant-ligatures:normal;font-variant-caps:normal;font-variant-numeric:normal;font-feature-settings:normal;text-align:start;writing-mode:lr-tb;text-anchor:start;fill:#3c484f;fill-opacity:1;stroke-width:0.75"
         d="m 335.13898,-118.381 -2.76,0.33 -2.64,18.629996 c -0.36,2.61 0.75,3.9 2.85,3.9 0.69,0 1.38,-0.15 2.19,-0.51 l -0.57,-1.98 c -0.36,0.12 -0.72,0.21 -1.08,0.21 -0.66,0 -0.81,-0.33 -0.72,-1.17 z" /><path
         inkscape:connector-curvature="0"
         id="path1070"
         style="font-style:italic;font-variant:normal;font-weight:normal;font-stretch:normal;font-size:30px;font-family:'Fira Sans';-inkscape-font-specification:'Fira Sans, Italic';font-variant-ligatures:normal;font-variant-caps:normal;font-variant-numeric:normal;font-feature-settings:normal;text-align:start;writing-mode:lr-tb;text-anchor:start;fill:#3c484f;fill-opacity:1;stroke-width:0.75"
         d="m 353.64523,-112.051 c -5.85,0 -8.01,5.94 -8.01,10.08 0,4.049996 2.16,6.449996 5.91,6.449996 1.74,0 3.39,-0.54 4.95,-1.65 l -1.11,-1.92 c -1.26,0.78 -2.28,1.23 -3.66,1.23 -2.01,0 -3.21,-1.14 -3.21,-3.899996 0,-3.27 1.17,-8.01 5.16,-8.01 1.23,0 2.13,0.33 3.09,1.17 l 1.47,-1.71 c -1.29,-1.23 -2.82,-1.74 -4.59,-1.74 z" /><path
         inkscape:connector-curvature="0"
         id="path1072"
         style="font-style:italic;font-variant:normal;font-weight:normal;font-stretch:normal;font-size:30px;font-family:'Fira Sans';-inkscape-font-specification:'Fira Sans, Italic';font-variant-ligatures:normal;font-variant-caps:normal;font-variant-numeric:normal;font-feature-settings:normal;text-align:start;writing-mode:lr-tb;text-anchor:start;fill:#3c484f;fill-opacity:1;stroke-width:0.75"
         d="m 365.28898,-95.521004 c 6.21,0 8.16,-6.179996 8.16,-9.989996 0,-4.02 -2.1,-6.54 -6.03,-6.54 -6.18,0 -8.19,6.09 -8.19,9.99 0,4.019996 2.13,6.539996 6.06,6.539996 z m 0.09,-2.22 c -2.13,0 -3.27,-1.26 -3.27,-4.019996 0,-3.03 1.11,-8.07 5.22,-8.07 2.1,0 3.24,1.26 3.24,4.02 0,3.03 -1.08,8.069996 -5.19,8.069996 z" /><path
         inkscape:connector-curvature="0"
         id="path1074"
         style="font-style:italic;font-variant:normal;font-weight:normal;font-stretch:normal;font-size:30px;font-family:'Fira Sans';-inkscape-font-specification:'Fira Sans, Italic';font-variant-ligatures:normal;font-variant-caps:normal;font-variant-numeric:normal;font-feature-settings:normal;text-align:start;writing-mode:lr-tb;text-anchor:start;fill:#3c484f;fill-opacity:1;stroke-width:0.75"
         d="m 386.53273,-112.051 c -2.28,0 -4.02,1.38 -5.49,3.45 l 0.24,-3.09 h -2.34 l -2.22,15.809996 h 2.73 l 1.32,-9.479996 c 1.26,-2.25 3,-4.38 5.01,-4.38 1.2,0 1.98,0.6 1.68,2.82 l -1.56,11.039996 h 2.73 l 1.56,-11.099996 c 0.45,-3.15 -1.02,-5.07 -3.66,-5.07 z" /><path
         inkscape:connector-curvature="0"
         id="path1076"
         style="font-style:italic;font-variant:normal;font-weight:normal;font-stretch:normal;font-size:30px;font-family:'Fira Sans';-inkscape-font-specification:'Fira Sans, Italic';font-variant-ligatures:normal;font-variant-caps:normal;font-variant-numeric:normal;font-feature-settings:normal;text-align:start;writing-mode:lr-tb;text-anchor:start;fill:#3c484f;fill-opacity:1;stroke-width:0.75"
         d="m 398.92507,-109.561 h 3.42 l 0.6,-2.13 h -3.72 l 0.54,-3.9 -2.16,0.24 -0.99,3.66 h -2.85 l -0.3,2.13 h 2.73 l -1.32,9.45 c -0.42,2.939996 1.02,4.589996 3.75,4.589996 1.2,0 2.37,-0.33 3.51,-1.05 l -0.9,-1.92 c -0.84,0.42 -1.5,0.66 -2.28,0.66 -1.17,0 -1.59,-0.63 -1.35,-2.219996 z" /><path
         inkscape:connector-curvature="0"
         id="path1078"
         style="font-style:italic;font-variant:normal;font-weight:normal;font-stretch:normal;font-size:30px;font-family:'Fira Sans';-inkscape-font-specification:'Fira Sans, Italic';font-variant-ligatures:normal;font-variant-caps:normal;font-variant-numeric:normal;font-feature-settings:normal;text-align:start;writing-mode:lr-tb;text-anchor:start;fill:#3c484f;fill-opacity:1;stroke-width:0.75"
         d="m 409.01913,-115.531 c 1.17,0 2.07,-0.87 2.07,-2.04 0,-0.96 -0.69,-1.71 -1.77,-1.71 -1.17,0 -2.07,0.87 -2.07,2.04 0,0.96 0.69,1.71 1.77,1.71 z m 0.72,3.84 h -2.73 l -2.22,15.809996 h 2.73 z" /><path
         inkscape:connector-curvature="0"
         id="path1080"
         style="font-style:italic;font-variant:normal;font-weight:normal;font-stretch:normal;font-size:30px;font-family:'Fira Sans';-inkscape-font-specification:'Fira Sans, Italic';font-variant-ligatures:normal;font-variant-caps:normal;font-variant-numeric:normal;font-feature-settings:normal;text-align:start;writing-mode:lr-tb;text-anchor:start;fill:#3c484f;fill-opacity:1;stroke-width:0.75"
         d="m 421.56804,-112.051 c -6.21,0 -8.58,5.52 -8.58,10.23 0,3.599996 1.89,5.939996 5.07,5.939996 1.74,0 3.33,-0.99 4.5,-2.4 l -0.27,2.01 c -0.54,3.87 -2.61,4.5 -4.71,4.5 -1.65,0 -3.3,-0.69 -4.26,-1.26 l -1.05,2.1 c 1.5,0.93 3.57,1.53 5.46,1.53 3.72,0 6.48,-1.74 7.23,-6.84 l 2.19,-14.459996 c -1.8,-0.87 -3.51,-1.35 -5.58,-1.35 z m 0,2.19 c 1.08,0 1.77,0.15 2.67,0.51 l -1.29,8.31 c -1.23,1.649996 -2.58,2.969996 -4.32,2.969996 -1.62,0 -2.7,-1.11 -2.7,-3.719996 0,-3.84 1.62,-8.07 5.64,-8.07 z" /><path
         inkscape:connector-curvature="0"
         id="path1082"
         style="font-style:italic;font-variant:normal;font-weight:normal;font-stretch:normal;font-size:30px;font-family:'Fira Sans';-inkscape-font-specification:'Fira Sans, Italic';font-variant-ligatures:normal;font-variant-caps:normal;font-variant-numeric:normal;font-feature-settings:normal;text-align:start;writing-mode:lr-tb;text-anchor:start;fill:#3c484f;fill-opacity:1;stroke-width:0.75"
         d="m 436.48038,-95.521004 c 6.21,0 8.16,-6.179996 8.16,-9.989996 0,-4.02 -2.1,-6.54 -6.03,-6.54 -6.18,0 -8.19,6.09 -8.19,9.99 0,4.019996 2.13,6.539996 6.06,6.539996 z m 0.09,-2.22 c -2.13,0 -3.27,-1.26 -3.27,-4.019996 0,-3.03 1.11,-8.07 5.22,-8.07 2.1,0 3.24,1.26 3.24,4.02 0,3.03 -1.08,8.069996 -5.19,8.069996 z" /></g></g></svg>