<?xml version="1.0" encoding="UTF-8" standalone="no"?>
<!-- Created with Inkscape (http://www.inkscape.org/) -->

<svg
   xmlns:dc="http://purl.org/dc/elements/1.1/"
   xmlns:cc="http://creativecommons.org/ns#"
   xmlns:rdf="http://www.w3.org/1999/02/22-rdf-syntax-ns#"
   xmlns:svg="http://www.w3.org/2000/svg"
   xmlns="http://www.w3.org/2000/svg"
   xmlns:sodipodi="http://sodipodi.sourceforge.net/DTD/sodipodi-0.dtd"
   xmlns:inkscape="http://www.inkscape.org/namespaces/inkscape"
   version="1.1"
   id="svg2"
   xml:space="preserve"
   width="794"
   height="794"
   viewBox="0 0 794 794.00003"
   sodipodi:docname="portucalio-logo.svg"
   inkscape:version="0.92.4 5da689c313, 2019-01-14"
   inkscape:export-filename="/home/pedrosilva/Documents/Projects/portucalio/Website/portucalio-social/Squares/portucalio-web-agosto.png"
   inkscape:export-xdpi="99.989922"
   inkscape:export-ydpi="99.989922"><metadata
     id="metadata8"><rdf:RDF><cc:Work
         rdf:about=""><dc:format>image/svg+xml</dc:format><dc:type
           rdf:resource="http://purl.org/dc/dcmitype/StillImage" /><dc:title /></cc:Work></rdf:RDF></metadata><defs
     id="defs6"><clipPath
       clipPathUnits="userSpaceOnUse"
       id="clipPath32"><path
         d="M 0,0 H 1113 V -425.876 H 0 Z"
         id="path30"
         inkscape:connector-curvature="0"
         style="clip-rule:evenodd" /></clipPath><clipPath
       clipPathUnits="userSpaceOnUse"
       id="clipPath42"><path
         d="M 0,-836.33079 H 2186.9369 V 836.33079 H 0 Z"
         id="path40"
         inkscape:connector-curvature="0" /></clipPath><clipPath
       clipPathUnits="userSpaceOnUse"
       id="clipPath46"><path
         d="M 0,0 H 2186.94 V -836.331 H 0 Z"
         id="path44"
         inkscape:connector-curvature="0"
         style="clip-rule:evenodd" /></clipPath><clipPath
       clipPathUnits="userSpaceOnUse"
       id="clipPath50"><path
         d="M 0,-836.33079 H 2186.9369 V 836.33079 H 0 Z"
         id="path48"
         inkscape:connector-curvature="0" /></clipPath><clipPath
       clipPathUnits="userSpaceOnUse"
       id="clipPath236"><path
         d="M 1132.5,-38.976 0,0 4.19097,-229.402 H 1117.19 Z"
         id="path234"
         inkscape:connector-curvature="0"
         style="clip-rule:evenodd" /></clipPath><clipPath
       clipPathUnits="userSpaceOnUse"
       id="clipPath246"><path
         d="M 0,-450.49636 H 2225.2525 V 450.49636 H 0 Z"
         id="path244"
         inkscape:connector-curvature="0" /></clipPath><clipPath
       clipPathUnits="userSpaceOnUse"
       id="clipPath250"><path
         d="M 0,0 H 2186.94 V -836.331 H 0 Z"
         id="path248"
         inkscape:connector-curvature="0"
         style="clip-rule:evenodd" /></clipPath><clipPath
       clipPathUnits="userSpaceOnUse"
       id="clipPath254"><path
         d="M 0,-836.33079 H 2186.9369 V 836.33079 H 0 Z"
         id="path252"
         inkscape:connector-curvature="0" /></clipPath></defs><sodipodi:namedview
     pagecolor="#ffffff"
     bordercolor="#666666"
     borderopacity="1"
     objecttolerance="10"
     gridtolerance="10"
     guidetolerance="10"
     inkscape:pageopacity="0"
     inkscape:pageshadow="2"
     inkscape:window-width="1920"
     inkscape:window-height="1011"
     id="namedview4"
     showgrid="false"
     inkscape:zoom="0.59465222"
     inkscape:cx="392.88626"
     inkscape:cy="286.33226"
     inkscape:window-x="0"
     inkscape:window-y="32"
     inkscape:window-maximized="1"
     inkscape:current-layer="g980"
     fit-margin-top="0"
     fit-margin-left="0"
     fit-margin-right="0"
     fit-margin-bottom="0"
     inkscape:snap-page="true" /><g
     id="g10"
     inkscape:groupmode="layer"
     inkscape:label="portucalio-logo"
     transform="matrix(1.3333333,0,0,-1.3333333,-1.6519532,1125.5171)"><rect
       style="opacity:1;vector-effect:none;fill:#fabe1d;fill-opacity:1;stroke:none;stroke-width:0.74999994;stroke-linecap:butt;stroke-linejoin:miter;stroke-miterlimit:4;stroke-dasharray:none;stroke-dashoffset:0;stroke-opacity:0;paint-order:normal"
       id="rect2326-4"
       width="595.5"
       height="595.5"
       x="1.2389649"
       y="-844.13782"
       inkscape:label="BG"
       transform="scale(1,-1)" /><g
       id="g995"
       inkscape:label="first-boat"><path
         inkscape:connector-curvature="0"
         id="rect2326"
         transform="matrix(0.75000002,0,0,-0.75000002,1.2389649,844.13785)"
         d="m 319.29297,593.90234 c -0.42099,0 -33.63787,17.9751 -73.81445,39.94532 l -73.04883,39.94531 -39.22266,12.93359 C 74.747448,706.00246 41.459883,715.07795 0,721.57227 v 60.46679 c 33.431484,-7.93193 64.626162,-18.95191 98.783203,-34.16797 54.582927,-24.31525 112.754647,-60.54074 164.509767,-102.44531 20.32086,-16.45316 58.43892,-51.52344 56,-51.52344 z"
         style="opacity:1;vector-effect:none;fill:#161920;fill-opacity:1;stroke:none;stroke-width:0.99999988;stroke-linecap:butt;stroke-linejoin:miter;stroke-miterlimit:4;stroke-dasharray:none;stroke-dashoffset:0;stroke-opacity:0;paint-order:normal"
         inkscape:label="bottom-dark" /><path
         inkscape:connector-curvature="0"
         id="rect2326-8"
         transform="matrix(0.75000002,0,0,-0.75000002,1.2389649,844.13785)"
         d="m 413.45898,394.89648 c -0.45145,-0.18713 -4.12183,6.03695 -8.5371,14.51954 C 387.26766,443.33224 374.45615,458.02228 326.5,499.33789 260.26755,556.39908 160.73503,613.72071 84.957031,638.44531 59.138505,646.86929 30.62535,653.87899 0,659.39648 v 59.7793 c 42.689984,-7.01127 83.058634,-18.16785 142.79688,-38.3125 l 30.16015,-10.16992 78.68555,-43.07617 c 77.66342,-42.51532 78.78203,-43.18648 86.1875,-51.8086 19.66889,-22.90056 37.53698,-49.46485 50.58789,-75.20703 9.66091,-19.05556 14.82411,-33.6932 18.22851,-51.68164 2.45012,-12.94609 6.92111,-48.07334 6.85938,-53.89844 -7.4e-4,-0.0707 -0.0168,-0.11252 -0.0469,-0.125 z"
         style="opacity:1;vector-effect:none;fill:#ffffff;fill-opacity:1;stroke:none;stroke-width:0.99999988;stroke-linecap:butt;stroke-linejoin:miter;stroke-miterlimit:4;stroke-dasharray:none;stroke-dashoffset:0;stroke-opacity:0;paint-order:normal"
         inkscape:label="white" /><path
         inkscape:connector-curvature="0"
         id="path8066"
         d="m 79.088867,367.80258 c 27.222523,10.2708 61.081133,26.88126 89.195663,43.75793 39.26664,23.57105 68.05183,45.08477 100.55292,75.15204 16.93712,15.6688 26.30381,27.33657 35.39619,44.09173 1.82171,3.35708 3.39817,5.84603 3.50316,5.53102 0.25895,-0.77683 -2.73117,-22.52953 -4.00242,-29.11684 -2.42999,-12.59197 -6.17138,-23.0238 -13.38464,-37.31908 -9.25666,-18.3451 -21.18846,-36.41285 -35.04171,-53.06203 -4.70465,-5.65417 -10.2022,-10.4074 -13.55544,-11.7201 -0.59173,-0.23164 -26.15515,-6.44814 -56.8076,-13.81444 -30.65246,-7.36629 -66.48922,-16.04191 -79.63726,-19.27915 -20.673264,-5.09008 -33.895934,-8.0562 -35.729667,-8.01494 -0.282751,0.006 3.9971,1.7136 9.510804,3.79386 z"
         style="opacity:1;fill:#fabe1d;fill-opacity:1;stroke:none;stroke-width:5.6692915;stroke-linecap:square;stroke-linejoin:round;stroke-miterlimit:4;stroke-dasharray:none;stroke-opacity:1;paint-order:markers fill stroke"
         inkscape:label="sand" /><path
         inkscape:connector-curvature="0"
         id="path8050"
         transform="matrix(0.75000002,0,0,-0.75000002,1.2389649,844.13785)"
         d="m 397.06055,285.71875 c -0.4218,0.0215 -0.34946,1.06355 0.38086,3.3457 11.99357,37.47859 13.05316,55.75946 4.54101,78.33985 -3.01482,7.99746 -6.75992,17.97744 -8.32226,22.17773 -7.70831,20.72317 -35.32154,55.01001 -61.125,75.89844 -7.78974,6.30593 -15.9134,13.08936 -18.05274,15.07422 -6.93888,6.43804 -80.54921,54.60782 -114.39844,74.86133 C 134.59321,594.60212 82.898289,615.64794 21.712891,628.03125 15.180714,629.3533 7.7651739,630.72449 0,632.09766 v 24.01367 c 92.544642,-16.80995 162.63003,-46.77982 250.06055,-103.8125 47.10744,-30.72912 100.72621,-75.08173 125.48242,-103.79688 24.33849,-28.2306 37.40479,-56.82958 40.73047,-89.14648 2.76933,-26.91067 1.25295,-36.51349 -9.07032,-57.42578 -4.76398,-9.65059 -9.06464,-16.266 -10.14257,-16.21094 z"
         style="opacity:1;fill:#e94e47;fill-opacity:1;stroke:none;stroke-width:10;stroke-linecap:square;stroke-linejoin:round;stroke-miterlimit:4;stroke-dasharray:none;stroke-opacity:1;paint-order:markers fill stroke"
         inkscape:label="top-red" /><path
         sodipodi:nodetypes="cccccsc"
         style="fill:#04b8e7;fill-opacity:1;stroke:none;stroke-width:2.83464575;stroke-linecap:butt;stroke-linejoin:miter;stroke-miterlimit:4;stroke-dasharray:none;stroke-opacity:1"
         d="m 272.40851,668.60273 c 0,0 20.14118,-41.47203 20.05003,-63.74737 -0.0249,-6.12371 -3.5993,-20.05002 -3.5993,-20.05002 0,0 3.07001,-8.81908 4.11317,-14.90905 1.27303,-7.43183 0,-22.61952 0,-22.61952 0,0 15.0414,26.10912 14.07143,44.56497 -2.31466,44.04191 -34.63533,76.76099 -34.63533,76.76099 z"
         id="path8092"
         inkscape:connector-curvature="0"
         inkscape:label="edge-blue" /><path
         inkscape:connector-curvature="0"
         id="path8121"
         transform="matrix(0.75000002,0,0,-0.75000002,1.2389649,844.13785)"
         d="m 268.25391,507.05469 c -0.81218,0.12113 -3.72603,1.54798 -8.97461,4.47265 -10.18564,5.67574 -79.33145,38.2919 -99.1543,46.77149 C 123.02972,574.16705 59.956355,590.3625 0,599.56836 v 29.21094 c 11.140227,-2.05005 22.032993,-4.26134 32.628906,-6.63282 66.341496,-14.84793 120.621944,-40.09323 212.900394,-99.01757 16.119,-10.2928 24.51139,-16.34072 22.72461,-16.07422 z"
         style="opacity:1;fill:#04b8e7;fill-opacity:1;stroke:none;stroke-width:3.77952766;stroke-linecap:square;stroke-linejoin:round;stroke-miterlimit:4.5999999;stroke-dasharray:none;stroke-opacity:1;paint-order:markers fill stroke"
         inkscape:label="top-blue" /></g><g
       id="g980"
       inkscape:label="second-boat"><path
         inkscape:connector-curvature="0"
         id="path1938"
         transform="matrix(0.75000002,0,0,-0.75000002,1.2389649,844.13785)"
         d="m 422.48438,56.798828 c -4.33555,-0.04013 -7.88282,0.472405 -7.88282,1.138672 0,1.978093 10.41898,10.791222 16.31055,13.796875 6.87715,3.508467 11.00132,8.908354 18.51562,24.244141 14.93698,30.484544 34.39651,53.455814 59.12305,69.789064 48.88953,32.29426 114.75003,61.40855 184.51758,81.5664 30.95338,8.94332 64.56339,16.52624 100.93164,22.77735 v -79.0625 c -10.04157,-1.20605 -20.82042,-2.4979 -28.44141,-3.41406 -55.50065,-6.67207 -117.7544,-18.56792 -157.01562,-30.00391 -44.82916,-13.0578 -101.47955,-33.86615 -124.71094,-45.80664 -9.821,-5.0478 -14.71483,-8.74668 -23.99023,-18.13672 -6.40907,-6.48828 -15.6634,-17.426574 -20.56446,-24.306641 l -8.91015,-12.509765 z"
         style="opacity:1;fill:#161920;fill-opacity:1;stroke:none;stroke-width:3.77952766;stroke-linecap:square;stroke-linejoin:round;stroke-miterlimit:4;stroke-dasharray:none;stroke-opacity:1;paint-order:markers fill stroke"
         inkscape:label="bottom-dark" /><path
         inkscape:connector-curvature="0"
         id="path1940"
         transform="matrix(0.75000002,0,0,-0.75000002,1.2389649,844.13785)"
         d="m 422.73828,0 c 0.39296,15.527733 2.01993,28.417362 5.08984,41.400391 2.42535,10.257026 3.99381,13.497464 11.99024,24.769531 5.06005,7.132866 14.753,18.586239 21.53906,25.451172 10.90256,11.029266 14.01276,13.290336 26.73242,19.437496 43.41171,20.98002 118.69744,45.56951 174.79297,57.08985 45.91073,9.42867 64.20484,12.37645 131.11719,20.39062 V 127.82422 C 743.97293,121.08997 703.02194,114.0761 669.05078,106.48242 612.34956,93.807849 553.99222,69.954245 512.08008,42.320312 494.71667,30.872096 478.04611,16.348508 463.22266,0 Z"
         style="opacity:1;fill:#ffffff;fill-opacity:1;stroke:none;stroke-width:10;stroke-linecap:square;stroke-linejoin:round;stroke-miterlimit:4;stroke-dasharray:none;stroke-opacity:1;paint-order:markers fill stroke"
         inkscape:label="white" /><path
         inkscape:connector-curvature="0"
         id="path1946"
         transform="matrix(0.75000002,0,0,-0.75000002,1.2389649,844.13785)"
         d="m 426.36523,0 c 0.11552,8.9174564 0.35113,16.604833 0.7168,19.285156 1.31165,9.614267 4.08752,23.296746 5.64453,27.822266 2.57782,7.49256 11.89125,21.796044 14.62696,22.464844 1.79396,0.438573 77.79506,15.414221 104.62304,20.615234 43.06179,8.348186 97.67815,17.91304 116.8711,20.46875 7.87861,1.04911 6.49861,0.35119 -3.76954,-1.90625 C 608.81391,96.380374 540.2371,67.063721 501.73242,38.919922 486.11408,27.504174 472.06596,14.688515 459.11523,0 Z"
         style="opacity:1;fill:#fabe1d;fill-opacity:1;stroke:none;stroke-width:7.55905533;stroke-linecap:square;stroke-linejoin:round;stroke-miterlimit:4;stroke-dasharray:none;stroke-opacity:1;paint-order:markers fill stroke"
         inkscape:label="sand" /><path
         inkscape:connector-curvature="0"
         id="path1942"
         transform="matrix(0.75000002,0,0,-0.75000002,1.2389649,844.13785)"
         d="m 467.66016,0 c 7.80123,8.8130868 15.47243,16.624803 21.70117,21.876953 37.59806,31.703146 105.05651,63.175118 169.11914,78.898437 33.07378,8.11751 80.23281,16.28046 135.51953,23.85938 V 103.31641 C 705.85622,90.252978 646.00383,74.366879 592.24805,52.421875 555.74947,37.521877 524.32266,20.43075 495.85352,0 Z"
         style="opacity:1;fill:#e94e47;fill-opacity:1;stroke:none;stroke-width:10;stroke-linecap:square;stroke-linejoin:round;stroke-miterlimit:4;stroke-dasharray:none;stroke-opacity:1;paint-order:markers fill stroke"
         inkscape:label="top-red" /><path
         inkscape:connector-curvature="0"
         id="path1936"
         transform="matrix(0.75000002,0,0,-0.75000002,1.2389649,844.13785)"
         d="M 501.45703,0 C 554.82095,37.126276 624.46424,65.464698 709.6875,84.712891 732.45518,89.855116 761.06758,94.92546 794,99.759766 V 72.498047 C 730.75853,64.124573 680.35012,54.470313 639.08398,43.109375 604.36761,33.551655 579.31514,23.819265 540.37695,4.765625 537.09288,3.1586299 533.95577,1.5744361 530.91016,0 Z"
         style="opacity:1;fill:#04b8e7;fill-opacity:1;stroke:none;stroke-width:3.77952766;stroke-linecap:square;stroke-linejoin:round;stroke-miterlimit:4.5999999;stroke-dasharray:none;stroke-opacity:1;paint-order:markers fill stroke"
         inkscape:label="top-blue" /></g></g></svg>