<?xml version="1.0" encoding="UTF-8" standalone="no"?>
<!-- Created with Inkscape (http://www.inkscape.org/) -->

<svg
   xmlns:dc="http://purl.org/dc/elements/1.1/"
   xmlns:cc="http://creativecommons.org/ns#"
   xmlns:rdf="http://www.w3.org/1999/02/22-rdf-syntax-ns#"
   xmlns:svg="http://www.w3.org/2000/svg"
   xmlns="http://www.w3.org/2000/svg"
   xmlns:sodipodi="http://sodipodi.sourceforge.net/DTD/sodipodi-0.dtd"
   xmlns:inkscape="http://www.inkscape.org/namespaces/inkscape"
   version="1.1"
   id="svg2"
   xml:space="preserve"
   width="794"
   height="794"
   viewBox="0 0 794 794.00003"
   sodipodi:docname="portucalio-logo-not-cropped.svg"
   inkscape:version="0.92.4 5da689c313, 2019-01-14"
   inkscape:export-filename="/home/pedrosilva/Documents/Projects/portucalio/Website/portucalio-social/Squares/portucalio-web-agosto.png"
   inkscape:export-xdpi="99.989922"
   inkscape:export-ydpi="99.989922"><metadata
     id="metadata8"><rdf:RDF><cc:Work
         rdf:about=""><dc:format>image/svg+xml</dc:format><dc:type
           rdf:resource="http://purl.org/dc/dcmitype/StillImage" /><dc:title /></cc:Work></rdf:RDF></metadata><defs
     id="defs6"><clipPath
       clipPathUnits="userSpaceOnUse"
       id="clipPath32"><path
         d="M 0,0 H 1113 V -425.876 H 0 Z"
         id="path30"
         inkscape:connector-curvature="0"
         style="clip-rule:evenodd" /></clipPath><clipPath
       clipPathUnits="userSpaceOnUse"
       id="clipPath42"><path
         d="M 0,-836.33079 H 2186.9369 V 836.33079 H 0 Z"
         id="path40"
         inkscape:connector-curvature="0" /></clipPath><clipPath
       clipPathUnits="userSpaceOnUse"
       id="clipPath46"><path
         d="M 0,0 H 2186.94 V -836.331 H 0 Z"
         id="path44"
         inkscape:connector-curvature="0"
         style="clip-rule:evenodd" /></clipPath><clipPath
       clipPathUnits="userSpaceOnUse"
       id="clipPath50"><path
         d="M 0,-836.33079 H 2186.9369 V 836.33079 H 0 Z"
         id="path48"
         inkscape:connector-curvature="0" /></clipPath><clipPath
       clipPathUnits="userSpaceOnUse"
       id="clipPath236"><path
         d="M 1132.5,-38.976 0,0 4.19097,-229.402 H 1117.19 Z"
         id="path234"
         inkscape:connector-curvature="0"
         style="clip-rule:evenodd" /></clipPath><clipPath
       clipPathUnits="userSpaceOnUse"
       id="clipPath246"><path
         d="M 0,-450.49636 H 2225.2525 V 450.49636 H 0 Z"
         id="path244"
         inkscape:connector-curvature="0" /></clipPath><clipPath
       clipPathUnits="userSpaceOnUse"
       id="clipPath250"><path
         d="M 0,0 H 2186.94 V -836.331 H 0 Z"
         id="path248"
         inkscape:connector-curvature="0"
         style="clip-rule:evenodd" /></clipPath><clipPath
       clipPathUnits="userSpaceOnUse"
       id="clipPath254"><path
         d="M 0,-836.33079 H 2186.9369 V 836.33079 H 0 Z"
         id="path252"
         inkscape:connector-curvature="0" /></clipPath></defs><sodipodi:namedview
     pagecolor="#ffffff"
     bordercolor="#666666"
     borderopacity="1"
     objecttolerance="10"
     gridtolerance="10"
     guidetolerance="10"
     inkscape:pageopacity="0"
     inkscape:pageshadow="2"
     inkscape:window-width="960"
     inkscape:window-height="1011"
     id="namedview4"
     showgrid="false"
     inkscape:zoom="0.14866305"
     inkscape:cx="904.66101"
     inkscape:cy="66.464975"
     inkscape:window-x="0"
     inkscape:window-y="32"
     inkscape:window-maximized="0"
     inkscape:current-layer="g1774"
     fit-margin-top="0"
     fit-margin-left="0"
     fit-margin-right="0"
     fit-margin-bottom="0"
     inkscape:snap-page="true" /><g
     id="g10"
     inkscape:groupmode="layer"
     inkscape:label="portucalio-logo"
     transform="matrix(1.3333333,0,0,-1.3333333,-1.6519532,1125.5171)"><rect
       style="opacity:1;vector-effect:none;fill:#fabe1d;fill-opacity:1;stroke:none;stroke-width:0.74999994;stroke-linecap:butt;stroke-linejoin:miter;stroke-miterlimit:4;stroke-dasharray:none;stroke-dashoffset:0;stroke-opacity:0;paint-order:normal"
       id="rect2326"
       width="595.5"
       height="595.50006"
       x="1.2389649"
       y="-844.13788"
       transform="matrix(1,0,0,-0.99999995,1.5731251e-8,1.3492211e-5)"
       inkscape:label="BG" /><g
       style="stroke-width:1.47368217"
       transform="matrix(1.9235123,0,0,-1.9235123,-432.93171,626.05545)"
       id="g1774"
       inkscape:label="First-boat"><path
         inkscape:connector-curvature="0"
         id="path8127"
         d="m 47.478608,198.90716 c -52.1044033,-1.53168 -94.725372,-7.17562 -129.024712,-17.08569 -27.203186,-7.85978 -52.883006,-19.21149 -71.945606,-31.8034 -9.64118,-6.36853 -17.22906,-15.32508 -23.05316,-27.21136 -2.92992,-5.9796 -4.53823,-8.08554 -7.21971,-9.45353 -2.2972,-1.17194 -6.35942,-4.60822 -6.35942,-5.3795 0,-0.25979 1.38312,-0.45954 3.0736,-0.44389 l 3.0736,0.0284 3.4745,4.87749 c 1.91098,2.68262 5.51912,6.94738 8.01809,9.47724 3.61659,3.66128 5.5251,5.10422 9.35443,7.07242 9.05819,4.65573 31.1462,12.76854 48.62561,17.85994 15.308411,4.45902 39.581812,9.09743 61.222167,11.69895 8.378899,1.00728 22.450639,2.69693 31.270534,3.75479 37.598674,4.50957 108.820775,9.33642 152.443159,10.33134 26.7838,0.61089 60.02357,-0.39988 77.6759,-2.36198 26.24794,-2.91752 39.195,-5.87424 69.54912,-15.88291 l 15.29342,-5.0427 28.48239,-15.57535 c 15.66532,-8.56645 28.61673,-15.57535 28.78088,-15.57535 0.95096,0 -13.91119,13.67461 -21.83453,20.08989 -20.17993,16.33909 -42.86216,30.46397 -64.14468,39.94477 -30.01913,13.37272 -54.15973,18.44632 -95.68249,20.10948 -17.8378,0.71448 -102.593544,1.11413 -121.073092,0.5709 z"
         style="opacity:1;fill:#161920;fill-opacity:1;stroke:none;stroke-width:1.47368217;stroke-linecap:square;stroke-linejoin:round;stroke-miterlimit:4;stroke-dasharray:none;stroke-opacity:1;paint-order:markers fill stroke"
         inkscape:label="bottom-black" /><path
         inkscape:connector-curvature="0"
         id="path8034"
         d="M 123.17206,171.59767 C 66.368937,169.46388 14.098031,165.5572 -34.516959,159.81213 c -32.800261,-3.87618 -39.21126,-4.84281 -58.799295,-8.8656 -21.872306,-4.49191 -51.226996,-14.07953 -68.153726,-22.25988 -4.95954,-2.39685 -6.17248,-3.27881 -10.42351,-7.57925 -2.64597,-2.67672 -6.42511,-7.14228 -8.39808,-9.92346 -3.1179,-4.39512 -3.72957,-5.6587 -4.67524,-9.65803 -1.75197,-7.409249 -2.30036,-14.737776 -1.89567,-25.332851 0.20214,-5.291936 0.54659,-9.942454 0.76546,-10.334485 0.27045,-0.484436 1.09752,0.457417 2.58165,2.939963 7.79632,13.041085 19.16231,25.017425 31.39982,33.085993 16.34204,10.77479 39.09625,20.07566 61.204723,25.01762 27.112558,6.06055 65.515927,11.17615 122.67671,16.3414 49.166501,4.44287 110.736217,7.03382 141.135657,5.93923 32.55685,-1.17228 62.16852,-5.86603 85.94158,-13.62262 29.54673,-9.64041 68.35592,-31.99116 94.18073,-54.239981 18.69866,-16.109442 23.69365,-21.83697 30.57724,-35.061305 1.83634,-3.52796 3.34264,-6.053656 3.34727,-5.612662 0.0241,2.271273 -1.71934,15.968207 -2.67468,21.016039 -1.32741,7.013903 -3.34025,12.720902 -7.10715,20.150889 -5.08871,10.037172 -12.05574,20.39465 -19.72488,29.32384 -2.88747,3.36187 -3.32393,3.62426 -33.60581,20.20148 l -30.68037,16.79537 -11.75985,3.9656 c -34.06139,11.48602 -51.97173,15.48007 -80.18086,17.8805 -19.35099,1.64666 -56.67615,2.42037 -78.0427,1.61774 z"
         style="opacity:1;fill:#ffffff;fill-opacity:1;stroke:none;stroke-width:3.89911723;stroke-linecap:square;stroke-linejoin:round;stroke-miterlimit:4;stroke-dasharray:none;stroke-opacity:1;paint-order:markers fill stroke"
         inkscape:label="white" /><path
         inkscape:connector-curvature="0"
         id="path8066"
         d="m 266.19044,134.2611 c 14.15251,-5.33961 31.755,-13.9751 46.37124,-22.74898 20.41403,-12.254168 35.37895,-23.438772 52.27569,-39.070212 8.8053,-8.145934 13.67488,-14.2118 18.40185,-22.922513 0.94707,-1.745282 1.76665,-3.039245 1.82123,-2.875476 0.13462,0.403857 -1.41989,11.712705 -2.08079,15.137328 -1.26331,6.546342 -3.20839,11.969668 -6.95844,19.401531 -4.81237,9.537292 -11.0155,18.930402 -18.21756,27.586012 -2.44586,2.9395 -5.30395,5.41062 -7.04723,6.09307 -0.30763,0.12042 -13.5976,3.35228 -29.53327,7.18188 -15.93567,3.82961 -34.56657,8.33991 -41.402,10.02289 -10.74767,2.64624 -17.6219,4.18828 -18.57522,4.16683 -0.147,-0.003 2.07802,-0.89087 4.9445,-1.97236 z"
         style="opacity:1;fill:#fabe1d;fill-opacity:1;stroke:none;stroke-width:2.94736433;stroke-linecap:square;stroke-linejoin:round;stroke-miterlimit:4;stroke-dasharray:none;stroke-opacity:1;paint-order:markers fill stroke"
         inkscape:label="sand" /><path
         inkscape:connector-curvature="0"
         id="path8068"
         d="m -90.990533,128.52988 c -7.483554,-0.9965 -28.779157,-4.72642 -45.569457,-7.98147 -10.46054,-2.02794 -40.09416,-7.86686 -40.79365,-8.03786 -1.06669,-0.26078 -4.69789,-5.83816 -5.70301,-8.75959 -0.6071,-1.76456 -1.68947,-7.099622 -2.2009,-10.848334 -0.40017,-2.933263 -0.42329,-21.01334 -0.0294,-22.985179 l 0.24027,-1.202711 0.4196,0.668173 c 8.17401,13.016285 17.29926,23.006764 28.47616,31.176171 15.01343,10.9736 41.75232,22.4044 63.690395,27.22747 4.003672,0.8802 4.541946,1.15239 1.469982,0.74333 z"
         style="opacity:1;fill:#fabe1d;fill-opacity:1;stroke:none;stroke-width:2.94736433;stroke-linecap:square;stroke-linejoin:round;stroke-miterlimit:4;stroke-dasharray:none;stroke-opacity:1;paint-order:markers fill stroke"
         inkscape:label="sand" /><path
         inkscape:connector-curvature="0"
         id="path8050"
         d="m 135.91102,148.11723 c -3.32619,-0.14143 -15.23244,-0.62074 -26.45833,-1.06513 -76.105269,-3.01269 -165.40899,-12.78449 -204.485111,-22.3752 -24.978769,-6.13071 -51.282109,-18.40167 -65.942039,-30.763105 -5.76878,-4.864304 -14.70551,-15.329784 -19.97743,-23.394834 l -4.8124,-7.362068 1.30002,-8.134956 c 1.29706,-8.116459 1.30117,-8.126166 1.80347,-4.269922 1.6031,12.307172 8.50012,22.852242 21.20715,32.424324 11.8895,8.956228 25.06809,16.308099 40.5965,22.647341 43.020626,17.56254 95.915353,25.18385 234.08961,33.72869 18.23552,1.12771 60.05041,0.48239 75.59523,-1.16663 13.66519,-1.44963 32.99268,-4.38406 45.35577,-6.88623 23.85691,-4.82839 44.01337,-13.03401 69.549,-28.31314 13.19821,-7.897075 41.90031,-26.679618 44.60586,-29.189887 0.83415,-0.773914 4.00169,-3.418837 7.039,-5.877597 10.06107,-8.14464 20.82747,-21.513265 23.83303,-29.593476 0.60918,-1.637745 2.06939,-5.529054 3.24491,-8.647359 3.31898,-8.804356 2.90581,-15.931947 -1.77062,-30.54529095 -1.01248,-3.16385995 1.22198,-0.21932264 3.80637,5.01598715 4.02516,8.1539478 4.61656,11.8979368 3.53677,22.3907218 -1.29672,12.600741 -6.39178,23.752053 -15.88164,34.759494 -9.65274,11.196373 -30.55911,28.489693 -48.92686,40.471337 -43.15306,28.14961 -75.45593,39.399 -128.42275,44.72292 -10.52437,1.05785 -46.84215,1.93611 -58.88551,1.42401 z"
         style="opacity:1;fill:#e94e47;fill-opacity:1;stroke:none;stroke-width:3.89911723;stroke-linecap:square;stroke-linejoin:round;stroke-miterlimit:4;stroke-dasharray:none;stroke-opacity:1;paint-order:markers fill stroke"
         inkscape:label="top-red" /><path
         sodipodi:nodetypes="cccccsc"
         style="fill:#04b8e7;fill-opacity:1;stroke:none;stroke-width:1.47368217;stroke-linecap:butt;stroke-linejoin:miter;stroke-miterlimit:4;stroke-dasharray:none;stroke-opacity:1"
         d="m 366.6939,-22.11958 c 0,0 10.47104,21.56057488 10.42365,33.141129 -0.013,3.18361 -1.87121,10.423653 -1.87121,10.423653 0,0 1.59605,4.584881 2.13836,7.750949 0.66183,3.863682 0,11.759488 0,11.759488 0,0 7.81976,-13.573669 7.31549,-23.168538 C 383.49684,-5.1095063 366.6939,-22.11958 366.6939,-22.11958 Z"
         id="path8092"
         inkscape:connector-curvature="0"
         inkscape:label="edge-blue" /><path
         inkscape:connector-curvature="0"
         id="path8121"
         d="M 128.59264,138.77859 C 115.34918,138.38288 76.255353,135.88368 40.928234,133.17435 -7.6233217,129.45082 -50.1748,124.03623 -75.066738,118.41423 -111.72881,110.13388 -140.9963,97.539372 -162.5028,80.788377 c -6.90663,-5.379445 -11.37641,-10.7691 -15.05288,-18.150761 -3.37528,-6.776915 -4.14779,-10.889464 -3.59879,-19.158592 l 0.396,-5.964743 1.4769,6.42897 c 3.2653,14.213845 5.69015,19.277295 12.54138,26.188236 6.13157,6.185003 13.85064,11.332527 25.65788,17.110167 15.18246,7.429235 24.95049,11.223662 38.48681,14.950326 39.36871,10.83856 100.03708,17.69867 203.28384,22.98645 36.30406,1.85932 93.01815,-0.14742 121.98317,-4.31616 24.26138,-3.49178 50.38806,-10.09614 65.48104,-16.55245 7.72916,-3.30629 34.6893,-16.023684 38.66081,-18.236717 6.54875,-3.649162 3.78118,-1.313545 -5.36062,4.523957 -35.98045,22.97529 -57.145,32.81867 -83.01233,38.60806 -32.43645,7.25962 -71.97163,10.7052 -109.84777,9.57347 z"
         style="opacity:1;fill:#04b8e7;fill-opacity:1;stroke:none;stroke-width:1.47368217;stroke-linecap:square;stroke-linejoin:round;stroke-miterlimit:4.5999999;stroke-dasharray:none;stroke-opacity:1;paint-order:markers fill stroke"
         inkscape:label="top-blue" /></g><g
       id="g1952"
       transform="matrix(1.9235123,0,0,-1.9235123,677.89582,1008.3739)"
       style="stroke-width:1.47368217"
       inkscape:label="Second-boat"><path
         style="opacity:1;fill:#161920;fill-opacity:1;stroke:none;stroke-width:1.47368217;stroke-linecap:square;stroke-linejoin:round;stroke-miterlimit:4;stroke-dasharray:none;stroke-opacity:1;paint-order:markers fill stroke"
         d="m 47.478608,198.90716 c -52.1044033,-1.53168 -94.725372,-7.17562 -129.024712,-17.08569 -27.203186,-7.85978 -52.883006,-19.21149 -71.945606,-31.8034 -9.64118,-6.36853 -17.22906,-15.32508 -23.05316,-27.21136 -2.92992,-5.9796 -4.53823,-8.08554 -7.21971,-9.45353 -2.2972,-1.17194 -6.35942,-4.60822 -6.35942,-5.3795 0,-0.25979 1.38312,-0.45954 3.0736,-0.44389 l 3.0736,0.0284 3.4745,4.87749 c 1.91098,2.68262 5.51912,6.94738 8.01809,9.47724 3.61659,3.66128 5.5251,5.10422 9.35443,7.07242 9.05819,4.65573 31.1462,12.76854 48.62561,17.85994 15.308411,4.45902 39.581812,9.09743 61.222167,11.69895 8.378899,1.00728 22.450639,2.69693 31.270534,3.75479 37.598674,4.50957 108.820775,9.33642 152.443159,10.33134 26.7838,0.61089 60.02357,-0.39988 77.6759,-2.36198 26.24794,-2.91752 39.195,-5.87424 69.54912,-15.88291 l 15.29342,-5.0427 28.48239,-15.57535 c 15.66532,-8.56645 28.61673,-15.57535 28.78088,-15.57535 0.95096,0 -13.91119,13.67461 -21.83453,20.08989 -20.17993,16.33909 -42.86216,30.46397 -64.14468,39.94477 -30.01913,13.37272 -54.15973,18.44632 -95.68249,20.10948 -17.8378,0.71448 -102.593544,1.11413 -121.073092,0.5709 z"
         id="path1938"
         inkscape:connector-curvature="0"
         inkscape:label="bottom-black" /><path
         style="opacity:1;fill:#ffffff;fill-opacity:1;stroke:none;stroke-width:3.89911723;stroke-linecap:square;stroke-linejoin:round;stroke-miterlimit:4;stroke-dasharray:none;stroke-opacity:1;paint-order:markers fill stroke"
         d="M 123.17206,171.59767 C 66.368937,169.46388 14.098031,165.5572 -34.516959,159.81213 c -32.800261,-3.87618 -39.21126,-4.84281 -58.799295,-8.8656 -21.872306,-4.49191 -51.226996,-14.07953 -68.153726,-22.25988 -4.95954,-2.39685 -6.17248,-3.27881 -10.42351,-7.57925 -2.64597,-2.67672 -6.42511,-7.14228 -8.39808,-9.92346 -3.1179,-4.39512 -3.72957,-5.6587 -4.67524,-9.65803 -1.75197,-7.409249 -2.30036,-14.737776 -1.89567,-25.332851 0.20214,-5.291936 0.54659,-9.942454 0.76546,-10.334485 0.27045,-0.484436 1.09752,0.457417 2.58165,2.939963 7.79632,13.041085 19.16231,25.017425 31.39982,33.085993 16.34204,10.77479 39.09625,20.07566 61.204723,25.01762 27.112558,6.06055 65.515927,11.17615 122.67671,16.3414 49.166501,4.44287 110.736217,7.03382 141.135657,5.93923 32.55685,-1.17228 62.16852,-5.86603 85.94158,-13.62262 29.54673,-9.64041 68.35592,-31.99116 94.18073,-54.239981 18.69866,-16.109442 23.69365,-21.83697 30.57724,-35.061305 1.83634,-3.52796 3.34264,-6.053656 3.34727,-5.612662 0.0241,2.271273 -1.71934,15.968207 -2.67468,21.016039 -1.32741,7.013903 -3.34025,12.720902 -7.10715,20.150889 -5.08871,10.037172 -12.05574,20.39465 -19.72488,29.32384 -2.88747,3.36187 -3.32393,3.62426 -33.60581,20.20148 l -30.68037,16.79537 -11.75985,3.9656 c -34.06139,11.48602 -51.97173,15.48007 -80.18086,17.8805 -19.35099,1.64666 -56.67615,2.42037 -78.0427,1.61774 z"
         id="path1940"
         inkscape:connector-curvature="0"
         inkscape:label="white" /><path
         style="opacity:1;fill:#fabe1d;fill-opacity:1;stroke:none;stroke-width:2.94736433;stroke-linecap:square;stroke-linejoin:round;stroke-miterlimit:4;stroke-dasharray:none;stroke-opacity:1;paint-order:markers fill stroke"
         d="m 266.19044,134.2611 c 14.15251,-5.33961 31.755,-13.9751 46.37124,-22.74898 20.41403,-12.254168 35.37895,-23.438772 52.27569,-39.070212 8.8053,-8.145934 13.67488,-14.2118 18.40185,-22.922513 0.94707,-1.745282 1.76665,-3.039245 1.82123,-2.875476 0.13462,0.403857 -1.41989,11.712705 -2.08079,15.137328 -1.26331,6.546342 -3.20839,11.969668 -6.95844,19.401531 -4.81237,9.537292 -11.0155,18.930402 -18.21756,27.586012 -2.44586,2.9395 -5.30395,5.41062 -7.04723,6.09307 -0.30763,0.12042 -13.5976,3.35228 -29.53327,7.18188 -15.93567,3.82961 -34.56657,8.33991 -41.402,10.02289 -10.74767,2.64624 -17.6219,4.18828 -18.57522,4.16683 -0.147,-0.003 2.07802,-0.89087 4.9445,-1.97236 z"
         id="path1944"
         inkscape:connector-curvature="0"
         inkscape:label="sand" /><path
         style="opacity:1;fill:#fabe1d;fill-opacity:1;stroke:none;stroke-width:2.94736433;stroke-linecap:square;stroke-linejoin:round;stroke-miterlimit:4;stroke-dasharray:none;stroke-opacity:1;paint-order:markers fill stroke"
         d="m -90.990533,128.52988 c -7.483554,-0.9965 -28.779157,-4.72642 -45.569457,-7.98147 -10.46054,-2.02794 -40.09416,-7.86686 -40.79365,-8.03786 -1.06669,-0.26078 -4.69789,-5.83816 -5.70301,-8.75959 -0.6071,-1.76456 -1.68947,-7.099622 -2.2009,-10.848334 -0.40017,-2.933263 -0.42329,-21.01334 -0.0294,-22.985179 l 0.24027,-1.202711 0.4196,0.668173 c 8.17401,13.016285 17.29926,23.006764 28.47616,31.176171 15.01343,10.9736 41.75232,22.4044 63.690395,27.22747 4.003672,0.8802 4.541946,1.15239 1.469982,0.74333 z"
         id="path1946"
         inkscape:connector-curvature="0"
         inkscape:label="sand" /><path
         style="opacity:1;fill:#e94e47;fill-opacity:1;stroke:none;stroke-width:3.89911723;stroke-linecap:square;stroke-linejoin:round;stroke-miterlimit:4;stroke-dasharray:none;stroke-opacity:1;paint-order:markers fill stroke"
         d="m 135.91102,148.11723 c -3.32619,-0.14143 -15.23244,-0.62074 -26.45833,-1.06513 -76.105269,-3.01269 -165.40899,-12.78449 -204.485111,-22.3752 -24.978769,-6.13071 -51.282109,-18.40167 -65.942039,-30.763105 -5.76878,-4.864304 -14.70551,-15.329784 -19.97743,-23.394834 l -4.8124,-7.362068 1.30002,-8.134956 c 1.29706,-8.116459 1.30117,-8.126166 1.80347,-4.269922 1.6031,12.307172 8.50012,22.852242 21.20715,32.424324 11.8895,8.956228 25.06809,16.308099 40.5965,22.647341 43.020626,17.56254 95.915353,25.18385 234.08961,33.72869 18.23552,1.12771 60.05041,0.48239 75.59523,-1.16663 13.66519,-1.44963 32.99268,-4.38406 45.35577,-6.88623 23.85691,-4.82839 44.01337,-13.03401 69.549,-28.31314 13.19821,-7.897075 41.90031,-26.679618 44.60586,-29.189887 0.83415,-0.773914 4.00169,-3.418837 7.039,-5.877597 10.06107,-8.14464 20.82747,-21.513265 23.83303,-29.593476 0.60918,-1.637745 2.06939,-5.529054 3.24491,-8.647359 3.31898,-8.804356 2.90581,-15.931947 -1.77062,-30.54529095 -1.01248,-3.16385995 1.22198,-0.21932264 3.80637,5.01598715 4.02516,8.1539478 4.61656,11.8979368 3.53677,22.3907218 -1.29672,12.600741 -6.39178,23.752053 -15.88164,34.759494 -9.65274,11.196373 -30.55911,28.489693 -48.92686,40.471337 -43.15306,28.14961 -75.45593,39.399 -128.42275,44.72292 -10.52437,1.05785 -46.84215,1.93611 -58.88551,1.42401 z"
         id="path1942"
         inkscape:connector-curvature="0"
         inkscape:label="top-red" /><path
         inkscape:connector-curvature="0"
         id="path1934"
         d="m 366.6939,-22.11958 c 0,0 10.47104,21.56057488 10.42365,33.141129 -0.013,3.18361 -1.87121,10.423653 -1.87121,10.423653 0,0 1.59605,4.584881 2.13836,7.750949 0.66183,3.863682 0,11.759488 0,11.759488 0,0 7.81976,-13.573669 7.31549,-23.168538 C 383.49684,-5.1095063 366.6939,-22.11958 366.6939,-22.11958 Z"
         style="fill:#04b8e7;fill-opacity:1;stroke:none;stroke-width:1.47368217;stroke-linecap:butt;stroke-linejoin:miter;stroke-miterlimit:4;stroke-dasharray:none;stroke-opacity:1"
         sodipodi:nodetypes="cccccsc"
         inkscape:label="edge-blue" /><path
         style="opacity:1;fill:#04b8e7;fill-opacity:1;stroke:none;stroke-width:1.47368217;stroke-linecap:square;stroke-linejoin:round;stroke-miterlimit:4.5999999;stroke-dasharray:none;stroke-opacity:1;paint-order:markers fill stroke"
         d="M 128.59264,138.77859 C 115.34918,138.38288 76.255353,135.88368 40.928234,133.17435 -7.6233217,129.45082 -50.1748,124.03623 -75.066738,118.41423 -111.72881,110.13388 -140.9963,97.539372 -162.5028,80.788377 c -6.90663,-5.379445 -11.37641,-10.7691 -15.05288,-18.150761 -3.37528,-6.776915 -4.14779,-10.889464 -3.59879,-19.158592 l 0.396,-5.964743 1.4769,6.42897 c 3.2653,14.213845 5.69015,19.277295 12.54138,26.188236 6.13157,6.185003 13.85064,11.332527 25.65788,17.110167 15.18246,7.429235 24.95049,11.223662 38.48681,14.950326 39.36871,10.83856 100.03708,17.69867 203.28384,22.98645 36.30406,1.85932 93.01815,-0.14742 121.98317,-4.31616 24.26138,-3.49178 50.38806,-10.09614 65.48104,-16.55245 7.72916,-3.30629 34.6893,-16.023684 38.66081,-18.236717 6.54875,-3.649162 3.78118,-1.313545 -5.36062,4.523957 -35.98045,22.97529 -57.145,32.81867 -83.01233,38.60806 -32.43645,7.25962 -71.97163,10.7052 -109.84777,9.57347 z"
         id="path1936"
         inkscape:connector-curvature="0"
         inkscape:label="top-blue" /></g></g></svg>